<?xml version="1.0" encoding="UTF-8"?>
<svg width="1200pt" height="1200pt" version="1.1" viewBox="0 0 1200 1200" xmlns="http://www.w3.org/2000/svg">
 <path d="m598.14 237.34h-2.4648c-95.277 0-185 36.793-252.89 103.79-68.477 67.539-106.55 157.75-107.18 253.93-0.64844 96.219 36.211 186.88 103.77 255.36 67.539 68.477 157.75 106.53 253.93 107.2h2.4648c197.46 0 358.75-159.99 360.09-357.72 0.62891-96.219-36.211-186.88-103.79-255.36-67.539-68.477-157.75-106.53-253.93-107.2zm-2.4219 683.57c-0.71875 0-1.4336 0-2.1523-0.042968-86.406-0.53516-167.39-34.73-228.07-96.219-60.66-61.484-93.754-142.96-93.195-229.32 0.58203-86.406 34.754-167.39 96.242-228.07 60.992-60.145 141.53-93.215 227.12-93.215 0.71875 0 1.4805 0 2.1953 0.042969 86.406 0.53516 167.39 34.73 228.07 96.219 60.68 61.488 93.754 142.96 93.172 229.32-1.1641 177.6-146.01 321.28-323.39 321.28z" fill="#c362dd"/>
 <path d="m1132.3 110.02c-4.75-3.6758-119.79-88.242-405.36-19.941-1.75 0.62891-42.531 15.418-212.2-23.078-33.434-7.5742-67.809-8.3359-101.96-2.4219l-116.99 20.434c-9.8164 1.3906-19.672 2.2852-29.578 2.5547-33.656 0.58203-118.87 0.53516-182.13-19.27-7.5273-2.2852-15.574 0.53516-20.211 6.9023-4.6367 6.3672-4.5703 15.148-0.023437 21.555 0.42578 0.58203 41.074 60.723 20.887 271-1.8828 6.0938-45.242 152.91 15.305 449.28 21.355 104.55 10.555 192.3-32.109 260.69-4.0117 6.4062-3.6523 14.656 0.85156 20.703 5.668 7.5742 40.332 43.426 174.4 6.3633 89.43-24.246 183.99-22.676 273.58 4.6602 74.484 22.676 164.74 9.8164 269.21-5.0664 19.898-2.8242 40.332-5.7383 61.352-8.5156 148.03-19.18 257.11 40.516 258.18 41.141 2.8242 1.5664 5.9141 2.3281 8.9609 2.3281 5.332 0 10.578-2.2852 14.16-6.6328 5.6445-6.8125 5.6445-16.672-0.042969-23.484-0.85156-1.0312-86.137-105.63-39.887-291.3 21.02-84.254 32.133-160.48 33.164-226.54 0.49219-34.016-8.6484-65.656-17.523-96.266-5.6914-19.629-11.023-38.184-14.027-57.32-25.141-160.53 46.473-303.45 47.191-304.88 4.0273-7.8789 1.832-17.512-5.2031-22.891zm-78.293 333.43c3.3594 21.465 9.3203 42.039 15.102 61.891 8.4688 29.309 16.449 56.961 16 85.508-0.94141 63.234-11.699 136.64-32 218.21-31.82 127.5-6.7656 220.4 17.344 273.24-49.566-17.164-130.5-35.676-227.89-22.812-21.195 2.7812-41.77 5.6914-61.754 8.5586-100.21 14.297-186.66 26.664-253.39 6.2734-50.418-15.371-102.36-23.125-154.82-23.125-47.504 0-95.41 6.3633-142.96 19.27-70.156 19.406-105.27 15.461-121.09 10.398 39.887-73.902 49.141-165.01 27.473-271.18-58.441-285.92-16.629-429.78-15.484-434.75 13.938-142.38 1.9062-221.3-10.422-262.21 57.859 11.699 120.82 12.461 157.01 11.516 11.359-0.26953 22.656-1.2539 34.441-2.957l117.48-20.48c29.445-5.1523 58.934-4.3906 87.57 2.0156 166.85 37.824 219.86 26.621 233.49 21.512 211.98-50.148 322.4-10.039 357.36 7.6641-18.914 43.203-65.742 169.09-43.469 311.47z" fill="#c362dd"/>
 <path d="m598.63 165.28c-91.559 0.40234-177.74 26.488-251.59 78.652l-30.754-31.184 4.0742-4.0234 2.4102 2.4453c3.5859 3.6289 8.3359 5.4688 13.062 5.4688 4.6602 0 9.3203-1.793 12.883-5.2891 7.2148-7.125 7.3047-18.777 0.17969-25.992l-30.609-31.012c-7.1484-7.2617-18.777-7.2617-25.949-0.17969-7.2148 7.125-7.3047 18.777-0.17969 25.992l2.3945 2.4297-17.059 16.836c-0.023437 0.023437-0.054687 0.027344-0.078125 0.050781-0.023437 0.023438-0.03125 0.054688-0.054687 0.078125l-92.188 90.969-2.4102-2.4453c-7.125-7.2148-18.801-7.2148-25.949-0.17969-7.2148 7.125-7.3047 18.777-0.17969 25.992l30.609 31.012c3.5859 3.6289 8.3359 5.4688 13.062 5.4688 4.6602 0 9.3203-1.793 12.883-5.2891 7.2148-7.125 7.3047-18.777 0.17969-25.992l-2.3945-2.4297 3.7773-3.7305c9.3516 9.4727 21.793 22.082 30.75 31.164-53.105 73.184-81.383 159.45-81.988 250.47-1.5898 238.33 190.98 433.5 429.29 435.11h2.957c114.37 0 222.06-44.188 303.49-124.54 82.191-81.117 127.86-189.35 128.66-304.79 1.5742-238.28-191-433.45-429.28-435.07zm274.86 713.73c-74.527 73.543-173.08 113.97-277.72 113.97-0.89453 0-1.793 0-2.6875-0.042968-218.07-1.4336-394.31-180.02-392.86-398.1 0.58203-88.285 29.602-171.64 83.938-241.06 5.6914-7.2617 5.0859-17.656-1.4102-24.203l-41.855-42.438 49.25-48.598 41.902 42.453c6.5 6.543 16.852 7.2617 24.203 1.7031 69.309-52.836 151.95-80.715 239.25-80.715 0.94141 0 1.9258 0 2.8672 0.042969 218.07 1.4336 394.29 180.02 392.81 398.05-0.67188 105.68-42.484 204.72-117.68 278.93z" fill="#c362dd"/>
 <path d="m608.58 525.95c-12.816-6.543-26.891-9.3203-40.871-8.1562-8.1133-33.699-38.496-58.797-74.617-58.797s-66.508 25.098-74.617 58.797c-13.895-1.2539-28.012 1.6133-40.805 8.1562-18.285 9.2773-31.844 25.141-38.16 44.637-6.3438 19.539-4.707 40.332 4.5938 58.621 6.5195 12.773 16.27 23.258 28.234 30.566-13.199 32.043-3.3594 70.18 25.836 91.379 13.266 9.6367 28.859 14.699 44.949 14.699 4.0352 0 8.1133-0.3125 12.191-0.98828 14.16-2.2422 27.113-8.2461 37.824-17.387 26.305 22.586 65.609 24.965 94.918 3.6758 29.176-21.195 38.992-59.293 25.77-91.379 29.535-18.105 44.008-54.766 32.895-89.137-6.3672-19.504-19.902-35.367-38.141-44.688zm-25.727 107.06c-6.3203 1.3438-10.219 7.2617-12.277 13.398-2.0625 6.1406 0.49219 14.207 4.707 19.137 12.996 17.836 9.0078 42.934-8.8281 55.93-8.6484 6.3203-19.094 9.0078-29.805 7.125-10.531-1.6562-19.809-7.3516-27.875-19.137-3.3164-5.5117-10.129-7.2617-16.539-7.2617-6.4062 0-13.223 4.9297-16.539 10.398-6.3203 8.6484-15.594 14.34-26.129 16-10.668 1.8359-21.152-0.85156-29.805-7.125-17.879-12.996-21.824-38.094-6.4062-58.574 4.2578-4.8828 3.9883-11.965 1.9258-18.148-2.0625-6.1406-8.8281-11.023-15.191-12.367-10.152-3.2734-18.418-10.352-23.281-19.855-4.8398-9.5469-5.7148-20.391-2.3984-30.609 3.293-10.129 10.375-18.418 19.898-23.258 9.5469-4.8828 20.434-5.6445 33.699-0.94141 5.8711 2.5977 12.637 0.22656 17.879-3.6758 5.2422-3.8516 7.8438-11.785 7.168-18.285 0-22.094 17.926-40.02 40.02-40.02s40.02 17.926 39.617 43.695c-0.53516 6.4062 3.8984 11.875 9.1445 15.594 5.1992 3.7656 13.492 3.8086 19.496 1.2109 10.176-3.1836 21.02-2.4219 30.566 2.4219 9.5 4.8398 16.582 13.133 19.855 23.258 6.8164 21.066-4.6992 43.695-28.902 51.09z" fill="#c362dd"/>
 <path d="m493.09 562.39c-32.715 0-59.336 26.621-59.336 59.336 0 32.668 26.621 59.293 59.336 59.293 32.715 0 59.336-26.621 59.336-59.293 0.003906-32.715-26.617-59.336-59.336-59.336zm0 81.879c-12.461 0-22.586-10.082-22.586-22.543 0-12.461 10.129-22.586 22.586-22.586 12.461 0 22.586 10.129 22.586 22.586 0.003906 12.461-10.125 22.543-22.586 22.543z" fill="#c362dd"/>
 <path d="m825.31 406.07c-7.168-7.168-18.824-7.168-25.992 0l-42.688 42.688-42.688-42.688c-7.168-7.168-18.824-7.168-25.992 0-7.168 7.168-7.168 18.824 0 25.992l42.688 42.688-42.688 42.688c-7.168 7.168-7.168 18.824 0 25.992l42.688 42.688-42.688 42.688c-7.168 7.168-7.168 18.824 0 25.992l42.688 42.688-42.688 42.688c-7.168 7.168-7.168 18.824 0 25.992 3.5859 3.5859 8.2891 5.3789 12.996 5.3789 4.707 0 9.4102-1.793 12.996-5.3789l42.688-42.688 42.688 42.688c3.5859 3.5859 8.2891 5.3789 12.996 5.3789s9.4141-1.793 12.996-5.3789c7.168-7.168 7.168-18.824 0-25.992l-42.688-42.688 42.688-42.688c7.168-7.168 7.168-18.824 0-25.992l-42.688-42.688 42.688-42.688c7.168-7.168 7.168-18.824 0-25.992l-42.688-42.688 42.688-42.688c7.168-7.168 7.168-18.82 0-25.992zm-38.992 235.73-29.691 29.691-29.691-29.691 29.691-29.691zm0-111.37-29.691 29.691-29.691-29.691 29.691-29.691z" fill="#c362dd"/>
</svg>
