<?xml version="1.0" encoding="UTF-8"?>
<svg width="1200pt" height="1200pt" version="1.1" viewBox="0 0 1200 1200" xmlns="http://www.w3.org/2000/svg">
 <path d="m1130.6 478.13c-20.625-31.875-56.25-48.75-93.75-43.125l-391.87-367.5c-13.125-11.25-31.875-13.125-45-3.75-15-9.375-31.875-7.5-45 3.75l-391.87 365.63c-37.5-5.625-73.125 11.25-93.75 43.125-18.75 30-16.875 67.5 0 97.5 15 24.375 41.25 41.25 69.375 45h11.25c24.375 0 46.875-9.375 65.625-26.25 20.625-20.625 30-50.625 26.25-78.75l39.375-43.125v643.13c0 11.25 7.5 18.75 18.75 18.75 15 0 22.5 1.875 31.875 5.625s20.625 7.5 43.125 7.5 33.75-3.75 43.125-7.5c9.375-1.875 16.875-5.625 31.875-5.625s22.5 1.875 31.875 5.625 20.625 7.5 43.125 7.5 33.75-3.75 43.125-7.5c9.375-1.875 16.875-5.625 31.875-5.625s22.5 1.875 31.875 5.625 20.625 7.5 43.125 7.5 33.75-3.75 43.125-7.5c9.375-1.875 16.875-5.625 31.875-5.625s22.5 1.875 31.875 5.625 20.625 7.5 43.125 7.5 33.75-3.75 43.125-7.5c9.375-1.875 16.875-5.625 31.875-5.625 11.25 0 18.75-7.5 18.75-18.75v-643.13l39.375 43.125c-3.75 28.125 5.625 58.125 26.25 78.75 16.875 16.875 41.25 26.25 65.625 26.25h11.25c28.125-3.75 54.375-18.75 69.375-45 16.875-30 16.875-67.5 0-95.625zm-530.63-348.74 56.25 60-56.25 264.37-56.25-264.37zm-86.25 93.75 67.5 316.87c-9.375 1.875-16.875 3.75-22.5 5.625-9.375 1.875-16.875 5.625-31.875 5.625s-22.5-1.875-31.875-5.625c-7.5-1.875-15-3.75-24.375-5.625l-37.5-223.13c0-1.875-1.875-1.875-1.875-3.75zm-31.875 358.13c9.375 3.75 20.625 7.5 43.125 7.5s33.75-3.75 43.125-7.5c3.75-1.875 7.5-1.875 13.125-3.75v118.12c-11.25 1.875-18.75 3.75-24.375 5.625-9.375 1.875-16.875 5.625-31.875 5.625s-22.5-1.875-31.875-5.625c-7.5-1.875-15-3.75-24.375-5.625v-118.12c5.625 0 9.375 1.875 13.125 3.75zm-50.625 238.13c-11.25 1.875-18.75 3.75-24.375 5.625-9.375 1.875-16.875 5.625-31.875 5.625s-22.5-1.875-31.875-5.625c-7.5-1.875-15-3.75-24.375-5.625v-88.125c5.625 0 9.375 1.875 13.125 3.75 9.375 3.75 20.625 7.5 43.125 7.5s33.75-3.75 43.125-7.5c3.75-1.875 7.5-1.875 13.125-3.75zm37.5-86.25c5.625 0 9.375 1.875 13.125 3.75 9.375 3.75 20.625 7.5 43.125 7.5s33.75-3.75 43.125-7.5c3.75-1.875 7.5-1.875 13.125-3.75v88.125c-11.25 1.875-18.75 3.75-24.375 5.625-9.375 1.875-16.875 5.625-31.875 5.625s-22.5-1.875-31.875-5.625c-7.5-1.875-15-3.75-24.375-5.625zm150 0c5.625 0 9.375 1.875 13.125 3.75 9.375 3.75 20.625 7.5 43.125 7.5s33.75-3.75 43.125-7.5c3.75-1.875 7.5-1.875 13.125-3.75v88.125c-11.25 1.875-18.75 3.75-24.375 5.625-9.375 1.875-16.875 5.625-31.875 5.625s-22.5-1.875-31.875-5.625c-7.5-1.875-15-3.75-24.375-5.625zm150 0c5.625 0 9.375 1.875 13.125 3.75 9.375 3.75 20.625 7.5 43.125 7.5s33.75-3.75 43.125-7.5c3.75-1.875 7.5-1.875 13.125-3.75v88.125c-11.25 1.875-18.75 3.75-24.375 5.625-9.375 1.875-16.875 5.625-31.875 5.625s-22.5-1.875-31.875-5.625c-7.5-1.875-15-3.75-24.375-5.625zm-37.5-37.5c-11.25 1.875-18.75 3.75-24.375 5.625-9.375 1.875-16.875 5.625-31.875 5.625s-22.5-1.875-31.875-5.625c-7.5-1.875-15-3.75-24.375-5.625v-118.12c5.625 0 9.375 1.875 13.125 3.75 9.375 3.75 20.625 7.5 43.125 7.5s33.75-3.75 43.125-7.5c3.75-1.875 7.5-1.875 13.125-3.75zm-300 0c-11.25 1.875-18.75 3.75-24.375 5.625-9.375 1.875-16.875 5.625-31.875 5.625s-22.5-1.875-31.875-5.625c-7.5-1.875-15-3.75-24.375-5.625v-118.12c5.625 0 9.375 1.875 13.125 3.75 9.375 3.75 20.625 7.5 43.125 7.5s33.75-3.75 43.125-7.5c3.75-1.875 7.5-1.875 13.125-3.75zm-112.5 163.13c5.625 0 9.375 1.875 13.125 3.75 9.375 3.75 20.625 7.5 43.125 7.5s33.75-3.75 43.125-7.5c3.75-1.875 7.5-1.875 13.125-3.75v88.125c-11.25 1.875-18.75 3.75-24.375 5.625-9.375 1.875-16.875 3.75-31.875 3.75s-22.5-1.875-31.875-5.625c-7.5-1.875-15-3.75-24.375-5.625zm150 0c5.625 0 9.375 1.875 13.125 3.75 9.375 3.75 20.625 7.5 43.125 7.5s33.75-3.75 43.125-7.5c3.75-1.875 7.5-1.875 13.125-3.75v88.125c-11.25 1.875-18.75 3.75-24.375 5.625-9.375 1.875-16.875 3.75-31.875 3.75s-22.5-1.875-31.875-5.625c-7.5-1.875-15-3.75-24.375-5.625zm150 0c5.625 0 9.375 1.875 13.125 3.75 9.375 3.75 20.625 7.5 43.125 7.5s33.75-3.75 43.125-7.5c3.75-1.875 7.5-1.875 13.125-3.75v88.125c-11.25 1.875-18.75 3.75-24.375 5.625-9.375 1.875-16.875 3.75-31.875 3.75s-22.5-1.875-31.875-5.625c-7.5-1.875-15-3.75-24.375-5.625zm150 0c5.625 0 9.375 1.875 13.125 3.75 9.375 3.75 20.625 7.5 43.125 7.5s33.75-3.75 43.125-7.5c3.75-1.875 7.5-1.875 13.125-3.75v88.125c-11.25 1.875-18.75 3.75-24.375 5.625-9.375 1.875-16.875 3.75-31.875 3.75s-22.5-1.875-31.875-5.625c-7.5-1.875-15-3.75-24.375-5.625zm112.5-163.13c-11.25 1.875-18.75 3.75-24.375 5.625-9.375 1.875-16.875 5.625-31.875 5.625s-22.5-1.875-31.875-5.625c-7.5-1.875-15-3.75-24.375-5.625v-118.12c5.625 0 9.375 1.875 13.125 3.75 9.375 3.75 20.625 7.5 43.125 7.5s33.75-3.75 43.125-7.5c3.75-1.875 7.5-1.875 13.125-3.75zm-150-157.5c-11.25 1.875-18.75 3.75-24.375 5.625-9.375 1.875-16.875 5.625-31.875 5.625s-22.5-1.875-31.875-5.625c-5.625-1.875-13.125-3.75-22.5-5.625l67.5-316.87 84.375 90c0 1.875-1.875 1.875-1.875 3.75zm-523.13-43.125c-3.75 5.625-5.625 11.25-3.75 16.875 5.625 18.75 0 39.375-13.125 52.5-11.25 11.25-28.125 16.875-45 15s-31.875-11.25-43.125-28.125-11.25-39.375 0-56.25 28.125-26.25 46.875-26.25c5.625 0 9.375 0 15 1.875s13.125 0 16.875-3.75l399.37-371.26zm189.37-150 31.875 193.13h-1.875c-9.375 1.875-15 3.75-22.5 5.625-9.375 1.875-16.875 5.625-31.875 5.625s-22.5-1.875-31.875-5.625c-7.5-1.875-15-3.75-24.375-5.625v-108.75zm9.375 755.63c-9.375 3.75-16.875 5.625-31.875 5.625s-22.5-1.875-31.875-5.625c-7.5-1.875-15-3.75-24.375-5.625v-112.5c5.625 0 9.375 1.875 13.125 3.75 9.375 3.75 20.625 7.5 43.125 7.5s33.75-3.75 43.125-7.5c3.75-1.875 7.5-1.875 13.125-3.75v112.5c-11.25 1.875-18.75 3.75-24.375 5.625zm150 0c-9.375 3.75-16.875 5.625-31.875 5.625s-22.5-1.875-31.875-5.625c-7.5-1.875-15-3.75-24.375-5.625v-112.5c5.625 0 9.375 1.875 13.125 3.75 9.375 3.75 20.625 7.5 43.125 7.5s33.75-3.75 43.125-7.5c3.75-1.875 7.5-1.875 13.125-3.75v112.5c-11.25 1.875-18.75 3.75-24.375 5.625zm150 0c-9.375 3.75-16.875 5.625-31.875 5.625s-22.5-1.875-31.875-5.625c-7.5-1.875-15-3.75-24.375-5.625v-112.5c5.625 0 9.375 1.875 13.125 3.75 9.375 3.75 20.625 7.5 43.125 7.5s33.75-3.75 43.125-7.5c3.75-1.875 7.5-1.875 13.125-3.75v112.5c-11.25 1.875-18.75 3.75-24.375 5.625zm150 0c-9.375 3.75-16.875 5.625-31.875 5.625s-22.5-1.875-31.875-5.625c-7.5-1.875-15-3.75-24.375-5.625v-112.5c5.625 0 9.375 1.875 13.125 3.75 9.375 3.75 20.625 7.5 43.125 7.5s33.75-3.75 43.125-7.5c3.75-1.875 7.5-1.875 13.125-3.75v112.5c-11.25 1.875-18.75 3.75-24.375 5.625zm24.375-669.37v106.88c-11.25 1.875-18.75 3.75-24.375 5.625-9.375 1.875-16.875 5.625-31.875 5.625s-22.5-1.875-31.875-5.625c-5.625-1.875-13.125-3.75-22.5-5.625l31.875-193.13zm217.5 121.87c-9.375 15-24.375 24.375-43.125 28.125-16.875 1.875-33.75-3.75-45-15-13.125-13.125-18.75-33.75-13.125-52.5 1.875-5.625 0-13.125-3.75-16.875l-375-403.13 399.37 373.13c5.625 3.75 11.25 5.625 16.875 3.75 24.375-7.5 48.75 3.75 61.875 24.375 11.25 18.75 11.25 41.25 1.875 58.125z" fill="#c362dd"/>
</svg>
