<?xml version="1.0" encoding="UTF-8"?>
<svg width="1200pt" height="1200pt" version="1.1" viewBox="0 0 1200 1200" xmlns="http://www.w3.org/2000/svg">
 <path d="m755.35 88.801h-549.72v946.32h718.04v-778.06h-153.95c-3.8164 0-7.4805-1.5156-10.18-4.2148-2.7031-2.7031-4.2188-6.3633-4.2188-10.184v-153.86zm148 139.56h-119.24v-119.29l119.24 119.24zm-602.61 65.16h527.82c3.8203 0 7.4844 1.5195 10.184 4.2188 2.6992 2.6992 4.2188 6.3633 4.2188 10.184v660.37c0 3.8164-1.5195 7.4805-4.2188 10.18-2.6992 2.7031-6.3633 4.2188-10.184 4.2188h-527.82c-3.8164 0-7.4805-1.5156-10.18-4.2188-2.7031-2.6992-4.2188-6.3633-4.2188-10.18v-660.4c0-3.8164 1.5156-7.4805 4.2188-10.18 2.6992-2.7031 6.3633-4.2188 10.18-4.2188zm420.07 156.31v-127.57h93.371v127.57zm-115.95 0v-127.57h87.203v127.57zm-115.96 0v-127.57h87.207v127.57zm-173.8 0 0.003906-127.57h145.05v127.57zm405.7 125.26v-96.504h93.371v96.504zm-115.95 0v-96.504h87.203v96.504zm-115.96 0v-96.504h87.207v96.504zm-173.8 0 0.003906-96.504h145.05v96.504zm405.7 125.25v-96.516h93.371v96.516zm-115.95 0v-96.516h87.203v96.516zm-115.96 0v-96.516h87.207v96.516zm-173.8 0 0.003906-96.516h145.05v96.516zm145.06 154v99.602h-145.05v-99.602zm115.95 0v99.602h-87.207v-99.602zm115.96 0v99.602h-87.207v-99.602zm122.11 0v99.602h-93.375v-99.602zm-93.375-28.738v-96.516h93.371v96.516zm-115.95 0v-96.516h87.203v96.516zm-115.96 0v-96.516h87.207v96.516zm-173.8 0 0.003906-96.516h145.05v96.516zm536.74-689.43h156.89c3.8203 0 7.4844 1.5156 10.184 4.2188 2.6992 2.6992 4.2188 6.3633 4.2188 10.18v975.03c0 3.8164-1.5195 7.4805-4.2188 10.18-2.6992 2.7031-6.3633 4.2188-10.184 4.2188h-746.78c-3.8203 0-7.4844-1.5156-10.184-4.2188-2.6992-2.6992-4.2188-6.3633-4.2188-10.18v-61.801h-56.301c-3.8203 0-7.4844-1.5195-10.184-4.2188s-4.2188-6.3633-4.2188-10.184v-975c0-3.8164 1.5195-7.4805 4.2188-10.18 2.6992-2.7031 6.3633-4.2188 10.184-4.2188h578.47c3.8633 0 7.5664 1.5508 10.273 4.3086l71.867 71.867zm-575.53 927.6h661.71c3.8203 0 7.4844-1.5195 10.184-4.2188 2.6992-2.6992 4.2188-6.3633 4.2188-10.184v-806.69c0.003906-3.8594-1.5469-7.5586-4.3086-10.258l-67.512-67.5h113.77l-0.003906 946.27h-718.07zm21.359-894.21v-0.003906c-3.9727 0.25781-7.8711-1.1406-10.777-3.8633-2.9023-2.7227-4.5508-6.5234-4.5508-10.504 0-3.9805 1.6484-7.7852 4.5508-10.508 2.9062-2.7227 6.8047-4.1211 10.777-3.8633h127.39c3.9727-0.25781 7.875 1.1406 10.777 3.8633 2.9062 2.7227 4.5547 6.5273 4.5547 10.508 0 3.9805-1.6484 7.7812-4.5547 10.504-2.9023 2.7227-6.8047 4.1211-10.777 3.8633zm0 59.004v-0.003906c-3.9727 0.25781-7.8711-1.1406-10.777-3.8633-2.9023-2.7227-4.5508-6.5234-4.5508-10.504 0-3.9805 1.6484-7.7852 4.5508-10.508 2.9062-2.7227 6.8047-4.1211 10.777-3.8633h127.39c3.9727-0.25781 7.875 1.1406 10.777 3.8633 2.9062 2.7227 4.5547 6.5273 4.5547 10.508 0 3.9805-1.6484 7.7812-4.5547 10.504-2.9023 2.7227-6.8047 4.1211-10.777 3.8633z" fill="#c362dd" fill-rule="evenodd"/>
</svg>
