<?xml version="1.0" encoding="UTF-8"?>
<svg width="1200pt" height="1200pt" version="1.1" viewBox="0 0 1200 1200" xmlns="http://www.w3.org/2000/svg">
 <path d="m832.22 345.32h-21.609v-95.719c0-3.1406 1.2188-5.9531 3.1875-8.0156s4.6406-3.3281 7.6406-3.3281c2.9531 0 5.6719 1.2656 7.6406 3.3281l0.046875 0.046875c1.9219 2.0625 3.1406 4.875 3.1406 7.9688v95.719zm-51.562 124.26h-462.89v-119.67h678.71c5.8125 0 11.062 2.3438 14.859 6.1875 3.7969 3.7969 6.1875 9.0938 6.1875 14.859v98.625h-84.797c1.5938-6.2812 2.4844-12.844 2.4844-19.641 0-21.656-8.7656-41.297-23.016-55.5-14.203-14.203-33.844-23.016-55.5-23.016s-41.297 8.8125-55.5 23.016c-14.203 14.203-23.016 33.844-23.016 55.5 0 6.7969 0.84375 13.359 2.4844 19.641zm-309.89-71.391c0-2.7188-2.2031-4.9219-4.9219-4.9219h-29.344c-2.7188 0-4.9219 2.2031-4.9219 4.9219s2.2031 4.9219 4.9219 4.9219h29.344c2.7188 0 4.9219-2.2031 4.9219-4.9219zm66 0c0-2.7188-2.2031-4.9219-4.9219-4.9219h-42.422c-2.7188 0-4.9219 2.2031-4.9219 4.9219s2.2031 4.9219 4.9219 4.9219h42.422c2.7188 0 4.9219-2.2031 4.9219-4.9219zm77.812 0c0-2.7188-2.2031-4.9219-4.9219-4.9219h-54.234c-2.7188 0-4.9219 2.2031-4.9219 4.9219s2.2031 4.9219 4.9219 4.9219h54.234c2.7188 0 4.9219-2.2031 4.9219-4.9219zm92.766 0c0-2.7188-2.2031-4.9219-4.9219-4.9219h-69.188c-2.7188 0-4.9219 2.2031-4.9219 4.9219s2.2031 4.9219 4.9219 4.9219h69.188c2.7188 0 4.9219-2.2031 4.9219-4.9219zm192.1-95.859c1.9688 2.0625 4.6406 3.3281 7.6406 3.3281h17.391c0.5625 0 0.98438 0.46875 0.98438 1.0312v38.578h21.609v-38.578c0-0.5625 0.42188-1.0312 0.98438-1.0312h17.391c2.9531 0 5.6719-1.2656 7.6406-3.3281s3.1875-4.9219 3.1875-8.0156c0-3.1406-1.2188-5.9531-3.1875-8.0156s-4.6406-3.3281-7.6406-3.3281h-58.359c-2.9531 0-5.6719 1.2656-7.6406 3.3281s-3.1875 4.9219-3.1875 8.0156 1.2188 5.9062 3.1406 7.9688zm-591.52 167.26h-134.26v-98.625c0-5.8125 2.3438-11.062 6.1875-14.859 3.7969-3.7969 9.0938-6.1875 14.859-6.1875h113.2zm-50.766-84.797c0-4.5938-1.875-8.7656-4.9219-11.766-3.0469-3.0469-7.2188-4.9219-11.766-4.9219s-8.7188 1.875-11.766 4.9219-4.9219 7.2188-4.9219 11.812v48.328c0 4.5469 1.875 8.7188 4.9219 11.766s7.2188 4.9219 11.812 4.9219 8.7656-1.875 11.766-4.9219c3.0469-3.0469 4.9219-7.2188 4.9219-11.766v-48.328zm-134.16 576.94h919.74v-37.594h-919.74zm908.16-100.55h-897.56c-2.9062 0-5.5781 1.1719-7.5 3.0938s-3.0938 4.5938-3.0938 7.5v42.516h919.74v-41.484c0-3.1875-1.3125-6.0938-3.4219-8.2031s-5.0156-3.4219-8.2031-3.4219zm38.25-461.44c-4.6875-4.6875-11.109-7.5938-18.234-7.5938h-23.859v165.79h23.859c7.0781 0 13.547-2.9062 18.234-7.5938s7.5938-11.109 7.5938-18.234v-114.19c0-7.0781-2.9062-13.547-7.5938-18.234zm-235.36 27.516c-5.8125 5.8125-9.375 13.828-9.375 22.688s3.6094 16.875 9.375 22.688c5.8125 5.8125 13.828 9.375 22.688 9.375s16.875-3.6094 22.688-9.375c5.8125-5.8125 9.375-13.828 9.375-22.688s-3.6094-16.875-9.375-22.688c-5.8125-5.8125-13.828-9.375-22.688-9.375s-16.875 3.6094-22.688 9.375zm-654.19 220.13c-3.7969-3.7969-6.1875-9.0938-6.1875-14.859v-153.14h134.26v67.219c0 2.7188 2.2031 4.9219 4.9219 4.9219s4.9219-2.2031 4.9219-4.9219v-67.219h466.13c3.9844 9.8438 9.8906 18.703 17.297 26.062 14.203 14.203 33.844 23.016 55.5 23.016s41.297-8.7656 55.5-23.016c7.3594-7.4062 13.312-16.219 17.297-26.062h88.031v372h-307.74v-276.66c0-8.4844-3.4688-16.219-9.0469-21.797s-13.312-9.0469-21.797-9.0469h-281.02c-6.8438 0-13.172 2.1562-18.281 5.9062-5.1562 3.7969-9.0938 9.1875-11.156 15.703l-23.062 73.359c-1.4062 4.4531-4.0781 8.1562-7.5938 10.734-3.4688 2.5781-7.8281 3.9844-12.516 3.9844h-130.55c-5.8125 0-11.062-2.3438-14.859-6.1875zm629.48 141.24c0 7.3594 3 14.062 7.875 18.891 4.8281 4.8281 11.531 7.875 18.891 7.875h83.062c7.3594 0 14.062-3 18.891-7.875 4.8281-4.8281 7.875-11.531 7.875-18.891v-194.86c0-7.3594-3-14.062-7.875-18.891-4.8281-4.8281-11.531-7.875-18.891-7.875h-83.062c-7.3594 0-14.062 3-18.891 7.875-4.8281 4.8281-7.875 11.531-7.875 18.891zm-494.72-48.562c4.3125 0 7.7812-3.4688 7.7812-7.7812v-37.641c0-4.3125-3.4688-7.7812-7.7812-7.7812s-7.7812 3.4688-7.7812 7.7812v11.062h-34.969c-0.9375 0-1.875 0.23437-2.7188 0.5625v-48.281h-36.562v70.594c0 3.8906 1.5 7.4531 3.8906 10.031 2.3906 2.5781 5.7188 4.1719 9.375 4.1719h0.046874v58.688c0 4.3125 3.4688 7.7812 7.7812 7.7812s7.7812-3.4688 7.7812-7.7812v-59.672c1.5-0.65625 2.9062-1.6406 4.0312-2.8594 2.25-2.3906 3.6094-5.6719 3.6094-9.2812v-8.9062c0.84375 0.32813 1.7344 0.5625 2.7188 0.5625h34.969v11.062c0 4.3125 3.4688 7.7812 7.7812 7.7812z" fill="#c362dd"/>
</svg>
