<?xml version="1.0" encoding="UTF-8"?>
<svg width="1200pt" height="1200pt" version="1.1" viewBox="0 0 1200 1200" xmlns="http://www.w3.org/2000/svg">
 <path d="m476.48 951.72c41.34 0 75.691-38.082 81.793-87.648-26.613 3.1953-53.977 4.8906-81.793 4.8906s-55.184-1.6953-81.793-4.8906c6.1016 49.566 40.457 87.648 81.793 87.648z" fill="#c362dd"/>
 <path d="m538.55 1068.1c0 27.117 22.059 49.18 49.18 49.18 15.02 0 29.016-6.7305 38.402-18.457 36.914-46.145 57.246-104.11 57.246-163.2 0-32.453-3.1406-64.953-9.2422-96.93-23.301 7.7656-47.941 14.055-73.516 18.895v56.023c0 43.473-16.926 84.336-47.668 115.07-9.2852 9.2852-14.402 21.637-14.402 34.773z" fill="#c362dd"/>
 <path d="m828.21 641.38c0-47.414-34.957-92.945-98.438-128.21-67.316-37.398-157.27-57.996-253.29-57.996s-185.97 20.598-253.29 57.996c-63.477 35.266-98.434 80.797-98.434 128.21 0 47.414 34.957 92.945 98.438 128.21 67.316 37.398 157.27 57.996 253.29 57.996 96.02 0 185.97-20.598 253.29-57.996 63.477-35.266 98.438-80.797 98.438-128.21zm-248.28-124.14h3.5508c48.793 0 94.66 19 129.16 53.5 7.8164 7.8164 12.121 18.207 12.117 29.262 0 11.051-4.3047 21.441-12.125 29.262-7.8164 7.8125-18.207 12.117-29.258 12.117s-21.445-4.3047-29.262-12.125c-18.859-18.867-43.945-29.258-70.629-29.258h-3.5508c-22.816 0-41.379-18.562-41.379-41.379s18.562-41.379 41.379-41.379zm-339.61 53.5c34.5-34.5 80.371-53.5 129.16-53.5h3.5508c22.816 0 41.379 18.562 41.379 41.379s-18.562 41.379-41.379 41.379h-3.5508c-26.684 0-51.773 10.391-70.637 29.258-7.8164 7.8164-18.211 12.125-29.262 12.125-11.051 0-21.441-4.3047-29.258-12.117-7.8164-7.8164-12.121-18.211-12.125-29.262 0.003907-11.055 4.3047-21.445 12.121-29.262zm-24.309 145.26 24.387-33.43c53.441 38.984 141.7 62.258 236.08 62.258 94.383 0 182.64-23.273 236.09-62.258l24.387 33.43c-60.27 43.961-157.64 70.207-260.47 70.207-102.83 0-200.2-26.246-260.46-70.207z" fill="#c362dd"/>
 <path d="m278.83 838.66c-6.1016 31.977-9.2422 64.473-9.2422 96.93 0 59.094 20.332 117.05 57.25 163.2 9.3828 11.727 23.383 18.457 38.402 18.457 27.117 0 49.18-22.059 49.18-49.18v-4.6406c0-13.137-5.1172-25.488-14.402-34.773-30.738-30.738-47.668-71.605-47.668-115.07v-56.023c-25.578-4.8398-50.219-11.133-73.52-18.895z" fill="#c362dd"/>
 <path d="m759.86 226.39c41.992-26.227 68.348-72.801 68.348-122.95v-20.691h-40.09c-46.473 0-89.652 22.238-116.72 59.094 34.168 22.84 64.129 51.492 88.461 84.543z" fill="#c362dd"/>
 <path d="m509.24 414.61c90.637 4.2422 175.11 25.984 240.63 62.387 10.973 6.0938 21.219 12.516 30.77 19.207 4.082-20.23 6.1914-40.879 6.1914-61.719 0-137.57-89.988-254.5-214.18-295.07-48.094 47.414-75.473 116.54-75.473 191.62 0 28.797 4.0742 56.84 12.066 83.574zm112.07-145.64c22.855 0 41.379 18.523 41.379 41.379s-18.523 41.379-41.379 41.379-41.379-18.523-41.379-41.379c0-22.852 18.527-41.379 41.379-41.379z" fill="#c362dd"/>
 <path d="m166.14 434.48c0 20.84 2.1094 41.492 6.1914 61.719 9.5508-6.6914 19.797-13.113 30.77-19.207 70.887-39.383 163.94-61.602 263-63.062-6.8398-26.758-10.305-54.531-10.305-82.902 0-77.066 25.469-149.01 70.879-202.82-16.344-2.668-33.102-4.0781-50.191-4.0781-171.12 0-310.34 139.22-310.34 310.35zm165.52-165.52c22.855 0 41.379 18.523 41.379 41.379s-18.523 41.379-41.379 41.379-41.379-18.523-41.379-41.379c0-22.852 18.527-41.379 41.379-41.379z" fill="#c362dd"/>
 <path d="m839.13 1075.9c-11.609 0-22.051 6.4492-27.242 16.84l-22.895 45.789-76.07-119.54c-10.988 38.266-29.398 74.336-54.477 105.68-17.281 21.598-43.055 33.984-70.715 33.984-49.934 0-90.559-40.625-90.559-90.559v-4.6406c0-24.191 9.418-46.93 26.523-64.035 9.3867-9.3867 17.012-20.051 22.785-31.582-19.941 15.945-44.047 25.297-70 25.297-25.949 0-50.055-9.3516-70-25.297 5.7734 11.531 13.398 22.199 22.785 31.582 17.105 17.105 26.523 39.844 26.523 64.035v4.6406c0 49.934-40.625 90.559-90.559 90.559-27.66 0-53.434-12.387-70.711-33.984-25.078-31.352-43.488-67.418-54.477-105.68l-76.07 119.54-22.895-45.789c-5.1914-10.391-15.629-16.84-27.242-16.84-16.793 0-30.457 13.664-30.457 30.457v63.219c0 16.793 13.664 30.457 30.457 30.457h725.29c16.793 0 30.457-13.664 30.457-30.457v-63.219c0-16.797-13.664-30.457-30.457-30.457z" fill="#c362dd"/>
 <path d="m170.57 261.09c-1.1211-0.70703-2.2539-1.4062-3.3555-2.1328-65.398 17.988-122.79 57.898-162.31 113.23-3.207 4.4883-4.9023 9.7773-4.9023 15.293 0 14.512 11.805 26.316 26.316 26.316h1.9688c33.707 0 66.777-5.6992 98.492-16.93 5.2266-48.938 20.531-94.898 43.789-135.78z" fill="#c362dd"/>
 <path d="m785.76 258.95c-1.1055 0.73047-2.2344 1.4258-3.3555 2.1328 23.262 40.879 38.562 86.844 43.793 135.78 31.711 11.23 64.781 16.93 98.488 16.93h1.9688c14.512 0 26.316-11.805 26.316-26.316 0-5.5156-1.6953-10.809-4.9023-15.293-39.52-55.332-96.91-95.246-162.31-113.23z" fill="#c362dd"/>
 <path d="m193.11 226.39c24.332-33.051 54.293-61.703 88.465-84.539-27.066-36.859-70.246-59.098-116.72-59.098h-40.09v20.691c0 50.145 26.352 96.719 68.344 122.95z" fill="#c362dd"/>
 <path d="m1117.2 0c-45.633 0-82.758 37.125-82.758 82.758v206.9h165.52v-206.9c0-45.633-37.125-82.758-82.758-82.758z" fill="#c362dd"/>
 <path d="m1158.6 475.86v-144.83h-82.758v144.83c0 26.973-17.297 49.984-41.379 58.523v24.234c0 11.406 9.2812 20.691 20.691 20.691h124.14c11.406 0 20.691-9.2812 20.691-20.691v-24.234c-24.086-8.543-41.383-31.551-41.383-58.523z" fill="#c362dd"/>
 <path d="m1075.9 724.14h20.688v393.11h41.379v-393.11h20.691v-103.45h-82.758z" fill="#c362dd"/>
</svg>
