<?xml version="1.0" encoding="UTF-8"?>
<svg width="1200pt" height="1200pt" version="1.1" viewBox="0 0 1200 1200" xmlns="http://www.w3.org/2000/svg">
 <path d="m717.79 129.47c-63.844 0-122.16 23.766-166.92 62.672-0.60938 0.46875-1.3125 0.75-1.875 1.3125l-2.5312 2.6719c-9.9844 9.0938-19.312 18.844-27.75 29.391l-169.55 179.58v-2.625c0-16.547-13.453-30-30-30s-30 13.453-30 30v33.047c-17.438 10.453-28.312 29.25-28.312 49.875 0 20.672 10.875 39.469 28.312 50.016v72.703l-24.422-6.1875c-13.547-3.4219-27.328 4.7812-30.797 18.281l-6 23.672c-1.6406 6.6094-0.65625 13.406 2.8125 19.219s9 9.8906 15.562 11.531l28.172 7.125v366.19c0 12.422 10.125 22.547 22.547 22.547h35.906c12.422 0 22.547-10.125 22.547-22.547v-31.078h333.61l8.0625 35.953c2.2969 10.406 11.344 17.672 22.031 17.672h39.844c6.8906 0 13.312-3.0938 17.625-8.5312s5.8594-12.422 4.2656-19.125l-57.797-247.22 38.25 9.7031c2.0625 0.51562 4.1719 0.79688 6.2344 0.79688 11.297 0 21.656-7.6406 24.562-19.078l6-23.625v-0.046875c3.375-13.594-4.9219-27.375-18.422-30.75l-132.24-33.562 22.031-64.219c15.75 3 31.828 4.6406 48.234 4.6406 140.63 0 255-114.38 255-255 0-140.58-114.38-255-255-255zm-160.69 546.66-11.766-3-3.375-0.89062 41.297-70.406c0.14063-0.1875 0.28125-0.375 0.42188-0.60938l93.516-159.56 0.046876 0.046875 27.844-47.672c2.1562-3.6562 6.6562-4.875 10.359-2.7188 2.25 1.3125 3.6562 3.7969 3.6562 6.4688 0 1.4062-0.32812 2.625-0.98437 3.7969zm-207.94-52.781v-75.094l205.92 54.141-37.359 63.703zm368.63-283.03c10.312 0 19.688 3.7031 27.234 9.6562 0.51562 1.125 1.0781 2.25 1.9688 3.2344 1.2656 1.4062 2.8125 2.3438 4.4531 3 6.4688 7.6875 10.5 17.438 10.5 28.266 0 11.438-4.4531 21.797-11.625 29.672-0.23438 0.1875-0.5625 0.23438-0.79688 0.46875-0.5625 0.51562-0.79688 1.125-1.2656 1.6875-4.7812 4.5469-10.547 8.1094-16.969 10.172l7.5469-12.891c2.7656-4.8281 4.2188-10.312 4.2188-15.844 0-11.109-5.9531-21.516-15.516-27.141-2.25-1.3125-4.5938-2.25-6.9844-2.9531-0.65625-0.1875-1.3594-0.32812-2.0156-0.46875-1.875-0.42188-3.7969-0.70312-5.7188-0.75-0.42188 0-0.84375-0.1875-1.2656-0.1875-0.23438 0-0.46875 0.09375-0.70312 0.09375-2.4375 0.046875-4.875 0.28125-7.2656 0.9375-8.1094 2.1094-14.953 7.3125-19.266 14.625l-8.9062 15.188c-1.2188-4.0781-1.8281-8.2969-1.8281-12.609 0.046875-24.328 19.875-44.156 44.203-44.156zm-12 129.74v99.375c-17.859-1.125-35.25-4.6875-51.891-10.828zm24-18.562c9.8906-1.7812 19.031-5.625 27-11.203l79.359 86.906c-29.25 24.281-66.094 39.609-106.36 42.188zm123.71 59.109-79.734-87.281c6.3281-9.0938 10.547-19.828 11.812-31.406h117.42c-1.875 45.75-20.297 87.234-49.5 118.69zm-69.656-142.69c-2.0625-8.25-5.625-15.891-10.406-22.641l86.812-79.406c23.531 28.219 38.766 63.469 42.188 102.05zm-27.422-39.562c-7.8281-5.3906-16.875-9.1875-26.578-10.922v-117.89c43.828 2.8125 83.484 20.859 113.81 48.984zm-50.625-10.922c-7.7812 1.4062-15.047 4.0781-21.703 7.875l-79.688-87.328c28.406-22.031 63.328-35.953 101.39-38.391zm-119.48-63.703 79.312 86.906c-6.5625 7.7812-11.344 17.062-13.875 27.234l-118.64 0.046874c3.9844-44.344 23.531-84.281 53.203-114.19zm63.984 138.19c0.98438 9.0938 3.7031 17.906 8.1562 25.875l-87.469 80.016c-23.297-30.141-36.75-67.172-38.344-105.89zm-22.453 86.438-28.594 48.703c-4.3125-3.5625-8.2969-7.4531-12.234-11.391zm-267.37 48.047c10.641-10.734 17.016-25.266 17.016-41.016 0-19.547-9.8438-37.359-25.734-48.094l123.24-130.5c-7.875 24.516-12.188 50.578-12.188 77.672 0 73.875 32.156 143.63 87.141 191.72zm-47.297-123.94c0-3.3281 2.7188-6 6-6s6 2.6719 6 6v25.031c-1.9688-0.1875-3.9844-0.28125-6-0.28125s-4.0312 0.09375-6 0.28125zm-7.4062 51.422c8.625-3.5625 18.141-3.5625 26.812 0 12.703 5.4375 20.953 17.812 20.953 31.5 0 13.828-8.25 26.25-20.906 31.641-6.4688 2.6719-13.5 3.3281-20.203 2.0156-2.25-0.42188-4.4531-1.125-6.5625-2.0156-12.75-5.4375-20.953-17.859-20.953-31.641-0.046875-13.734 8.2031-26.109 20.859-31.5zm7.4062 160.31v-70.781c0.98438 0.09375 1.9219-0.046874 2.9062 0 1.0312 0.046876 2.0625 0.28125 3.0938 0.28125s2.0625-0.23437 3.0938-0.28125c0.98438-0.046874 1.9688 0.09375 2.9062 0v73.828l-0.14062-0.046876zm18.375 432.32h-33v-358.64l21.094 5.3438 11.906 3zm220.78-107.62c8.3906 0 15.234 6.8438 15.234 15.234v5.7656h-102.09v-5.7656c0-8.3906 6.8438-15.234 15.234-15.234zm-1.125-24h-70.547c-21.656 0-39.234 17.625-39.234 39.234v5.7656h-85.922l0.046875-257.58 244.22 61.969zm-195.66 78v-9h326.21l2.0156 9zm364.82 53.625-15.469-69.094-3.8906-17.531h-0.046874l-40.312-180.1 36.281 9.2344 60.188 257.53zm-43.969-86.625h-84.844v-5.7656c0-13.5-6.8438-25.453-17.297-32.531l48.797-151.4 11.578 2.9531zm98.531-202.36-6 23.578c-0.1875 0.65625-0.9375 1.0781-1.6406 0.9375l-105.52-26.766-33.047-8.3906-273.24-69.328v-0.046874l-29.719-7.5-73.547-18.656c-0.60938-0.14063-1.125-1.0312-0.98438-1.5938l6-23.625c0.14062-0.5625 0.75-0.98438 1.3125-0.98438 0.09375 0 0.1875 0 0.28125 0.046876l57.047 14.484 28.734 7.3125v-0.046874l194.95 49.453 29.062 7.4531 0.046875-0.046876 205.26 52.078c0.75 0.1875 1.1719 0.84375 0.98438 1.6406zm-150.71-64.406-42.891-10.875 36.938-63c9.1406 3.8906 18.422 7.2188 27.844 9.9844zm93.562-77.672c-30.328 0-59.625-5.7188-87.234-17.062l11.156-19.078c24.234 9.5625 49.734 14.672 76.078 14.672 115.55 0 209.53-93.984 209.53-209.53 0-115.55-93.984-209.53-209.53-209.53s-209.53 93.984-209.53 209.53c0 63.656 29.25 123.98 78.703 163.5l-10.969 18.703c-56.062-43.594-89.203-110.81-89.203-182.21 0-54.141 18.844-103.88 50.156-143.29l26.578-28.125c40.969-36.891 94.922-59.531 154.26-59.531 127.36 0 231 103.64 231 231 0 127.36-103.64 230.95-231 230.95zm-408.89-105.98c3.1406 1.3594 6.6562 2.0625 10.266 2.0625 3.6562 0 7.0781-0.70312 10.172-2.0156 9.7969-4.125 16.125-13.594 16.125-24.141 0-10.547-6.3281-20.062-16.031-24.094-6.3281-2.7188-14.344-2.6719-20.438-0.046874-9.7969 4.125-16.125 13.594-16.125 24.141 0 10.547 6.3281 20.062 16.031 24.094zm9.4688-26.156 1.6875 0.046876c0.65625 0.28125 1.4062 0.9375 1.4062 2.0156 0 1.0312-0.75 1.7344-1.4062 2.0156h-1.7344c-0.65625-0.28125-1.4062-0.9375-1.4062-2.0156-0.046874-1.0312 0.70313-1.7344 1.4531-2.0625z" fill="#c362dd"/>
</svg>
