<?xml version="1.0" encoding="UTF-8"?>
<svg width="1200pt" height="1200pt" version="1.1" viewBox="0 0 1200 1200" xmlns="http://www.w3.org/2000/svg">
 <path d="m726.66 726.66h-253.31v-253.31c0-34.969-28.359-63.328-63.328-63.328h-316.69c-34.969 0-63.328 28.359-63.328 63.328v633.28c0 35.016 28.359 63.328 63.328 63.328h633.28c35.016 0 63.328-28.312 63.328-63.328l0.046875-316.6c0-35.016-28.312-63.375-63.328-63.375zm-570-189.98h189.98v189.98h-189.98zm0 316.69h189.98v189.98h-189.98zm506.68 189.98h-189.98v-189.98h189.98zm443.34-696.66c35.016 0 63.328-28.359 63.328-63.328v-190.03c0-34.969-28.312-63.328-63.328-63.328h-190.03c-35.016 0-63.328 28.359-63.328 63.328v126.66l-126.66 0.046874v-126.71c0-34.969-28.312-63.328-63.328-63.328h-190.03c-34.969 0-63.328 28.359-63.328 63.328v189.98c0 34.969 28.359 63.328 63.328 63.328h126.66v189.98c0 34.969 28.359 63.328 63.328 63.328h189.98v126.66c0 35.016 28.312 63.328 63.328 63.328h189.98c35.016 0 63.328-28.312 63.328-63.328l0.09375-189.94c0-34.969-28.312-63.328-63.328-63.328h-126.71v-126.66zm-126.71-190.03h63.328v63.328h-63.328zm-443.29 0h63.328v63.328h-63.328zm189.98 190.03h126.66v126.66h-126.66zm316.69 316.64h-63.328v-63.328h63.328z" fill="#c362dd"/>
</svg>
