<?xml version="1.0" encoding="UTF-8"?>
<svg width="1200pt" height="1200pt" version="1.1" viewBox="0 0 1200 1200" xmlns="http://www.w3.org/2000/svg">
 <path d="m279.56 1082.8c0 23.25 18.75 42.188 42.188 42.188h26.062c23.25 0 42-18.938 42-42.188v-320.44h-110.25z" fill="#c362dd"/>
 <path d="m810.19 1082.8c0 23.25 18.75 42.188 42 42.188h26.062c23.438 0 42.188-18.938 42.188-42.188v-320.44h-110.25z" fill="#c362dd"/>
 <path d="m126.37 921.94v26.062c0 23.25 18.938 42.188 42.188 42.188h73.5v-110.44h-73.5c-23.25 0-42.188 18.938-42.188 42.188z" fill="#c362dd"/>
 <path d="m544.87 1082.8c0 23.25 18.75 42.188 42 42.188h26.25c23.25 0 42-18.938 42-42.188v-55.125h-110.25z" fill="#c362dd"/>
 <path d="m1095.6 75h-991.13c-16.312 0-29.438 13.125-29.438 29.438v75c0 16.312 13.125 29.438 29.438 29.438h175.13v368.06h110.25v-368.06h155.06v102.75h110.25v-102.75h155.06v368.06h110.25v-368.06h175.13c16.312 0 29.438-13.125 29.438-29.438v-75c0-16.312-13.125-29.438-29.438-29.438z" fill="#c362dd"/>
 <path d="m544.87 497.06h110.25v345.19h-110.25z" fill="#c362dd"/>
 <path d="m168.56 459.56h73.5v-110.44h-73.5c-23.25 0-42.188 18.938-42.188 42.188v26.062c0 23.25 18.938 42.188 42.188 42.188z" fill="#c362dd"/>
 <path d="m427.31 349.13h345.37v110.44h-345.37z" fill="#c362dd"/>
 <path d="m1031.4 349.13h-73.5v110.44h73.5c23.25 0 42.188-18.938 42.188-42.188v-26.062c0-23.25-18.938-42.188-42.188-42.188z" fill="#c362dd"/>
 <path d="m126.37 682.69c0 23.25 18.938 42.188 42.188 42.188h338.81v-110.44h-338.81c-23.25 0-42.188 18.938-42.188 42.188z" fill="#c362dd"/>
 <path d="m1031.4 614.44h-338.81v110.44h338.81c23.25 0 42.188-18.938 42.188-42.188v-26.062c0-23.25-18.938-42.188-42.188-42.188z" fill="#c362dd"/>
 <path d="m1031.4 879.74h-73.5v110.44h73.5c23.25 0 42.188-18.938 42.188-42.188v-26.062c0-23.25-18.938-42.188-42.188-42.188z" fill="#c362dd"/>
 <path d="m427.31 879.74h345.37v110.44h-345.37z" fill="#c362dd"/>
</svg>
