<?xml version="1.0" encoding="UTF-8"?>
<svg width="1200pt" height="1200pt" version="1.1" viewBox="0 0 1200 1200" xmlns="http://www.w3.org/2000/svg">
 <path d="m1190.5 205.98h-654.76v-102.41c0-0.86328-0.078125-1.7148-0.125-2.5703h654.89c5.2578 0 9.5234-4.2656 9.5234-9.5234 0-5.2578-4.2656-9.5234-9.5234-9.5234h-660.09c-2.1523-4.0781-4.918-7.8555-8.2695-11.211-8.7734-8.7695-20.43-13.598-32.832-13.598-17.516 0-33.191 9.7188-41.09 24.809h-327.46c-66.578 0-120.74 54.578-120.74 121.66 0 32.203 12.449 62.488 35.047 85.277 22.617 22.805 52.691 35.363 84.691 35.363h12.809c18.812 0 34.117-15.402 34.117-34.355 0-18.871-15.129-33.941-34.414-34.309-8.1602-0.17188-14.801-7.0352-14.801-15.289 0-4.0898 1.582-7.9414 4.4414-10.832 2.8555-2.875 6.6406-4.457 10.652-4.457h225.31c-12.391 3.6719-24.633 7.8438-36.641 12.535-60.449 23.656-114.46 59.207-160.55 105.66-40.855 41.172-73.371 88.984-96.656 142.1-26.152 59.695-39.414 123.32-39.414 189.12 0 58.441 10.539 115.43 31.324 169.38 23.453 60.961 58.691 115.41 104.75 161.84 40.895 41.215 88.328 74.008 140.98 97.473 59.23 26.371 122.36 39.742 187.64 39.742 57.973 0 114.52-10.625 168.06-31.582 60.441-23.629 114.46-59.172 160.56-105.64 40.855-41.199 73.371-89.008 96.656-142.1 26.156-59.688 39.418-123.31 39.418-189.11 0-58.453-10.539-115.45-31.324-169.39-23.441-60.938-58.684-115.38-104.75-161.81-40.895-41.242-88.328-74.035-140.98-97.473-18.285-8.1445-37.109-15.039-56.277-20.73h569.83c5.2578 0 9.5234-4.2656 9.5234-9.5234 0-5.2578-4.2656-9.5195-9.5234-9.5195zm-615.9 77.941c31.773 7.0234 62.48 17.984 91.586 32.656l-33.234 18.117c-1.9805-0.85547-3.9062-1.668-5.7422-2.4062-15.645-6.4141-31.809-11.754-48.027-15.867-8.2031-2.0898-16.531-3.8828-24.918-5.3984 8.2891-7.7344 15.195-16.906 20.336-27.102zm188.36 295.52c17.035-10.508 33.695-21.445 49.766-32.664 0.13672 0.35156 0.28516 0.70312 0.41797 1.0586 15.52 40.324 23.387 82.922 23.387 126.6 0 23.645-2.3594 47.23-7.0039 70.25-15.641-2.8398-31.539-6.125-47.531-9.832 7.9844-19.285 12.082-39.551 12.082-60.418 0-12.816-2.3828-55.449-31.117-94.996zm12.07 94.996c0 19.34-3.9727 38.109-11.781 55.91-12.508-3.1328-25.047-6.5273-37.492-10.16 4.5039-14.855 6.8203-30.191 6.8203-45.75 0-10.98-1.6406-38.27-15.492-68.254 9.9219-5.4453 19.793-11.074 29.523-16.828 26.266 35.242 28.422 73.645 28.422 85.082zm-552.67 103.21c-18.898 7.5977-38.215 14.711-57.676 21.215-14.977-39.664-22.586-81.508-22.586-124.43 0-28.105 3.3125-55.961 9.8203-82.965 14.766 7.4531 29.895 14.637 45.172 21.453-11.199 27.449-12.539 51.711-12.539 61.508 0 48.379 22 83.918 37.809 103.21zm-18.762-103.21c0-8.5742 1.1758-29.758 10.949-53.895 12.148 5.1602 24.418 10.102 36.672 14.762-4.4297 17.422-5.1719 31.645-5.1719 39.133 0 35.207 11.668 63.398 23.465 82.941-9.4531 4.3516-19.035 8.5742-28.645 12.645-13.859-15.59-37.27-48.824-37.27-95.586zm138.19 34.309h20.605c-18.102 10.688-36.543 20.844-55.133 30.328-6.6211 3.3867-13.465 6.7852-20.426 10.145-10.758-17.312-21.738-42.809-21.738-74.781 0-5.0898 0.46484-17.266 4.1055-32.484 8.8281 3.1875 17.742 6.3125 26.695 9.2695 5.5898 1.8438 11.145 3.625 16.629 5.3398-3.1875 5.2695-4.957 11.43-4.957 17.973 0.003906 18.863 15.352 34.211 34.219 34.211zm-15.168-34.43c0-5.8047 3.2383-11.02 8.3984-13.59 2.1406-1.0469 4.418-1.5781 6.7656-1.5781h73.617c8.3633 0 15.168 6.8008 15.168 15.383 0 8.3633-6.8008 15.168-15.168 15.168h-73.617c-8.3594 0-15.164-6.8047-15.164-15.383zm-43-89.902v-0.011719h0.003906zm-6.7539-12.691c-9.9609-3.7461-19.961-7.707-29.91-11.82 1.9023-22.41 10.047-58.711 40.348-89.254 7.0117-7.0469 25.629-23.613 53.852-33.52 6.6914 11.027 13.188 22.18 19.402 33.34-22.59 11.102-37.492 24.766-43.27 30.613-19.215 19.367-33.051 43.617-40.422 70.641zm18.961 248.99c6.1172 9.7773 13.301 18.855 21.457 27.051 7.9492 8.0156 35.645 33.191 77.801 42.934-3.5039 9.6016-7.1875 19.203-10.984 28.715-52.5-0.70312-87.148-31.492-96.797-41.207-11.938-12.023-21.395-25.984-28.246-41.562 12.246-5.0273 24.547-10.355 36.77-15.93zm34.973 13.625c-6.6016-6.6328-12.48-13.918-17.562-21.73 8.5195-4.0703 16.875-8.1914 24.926-12.309 5.082-2.5938 10.117-5.2305 15.105-7.8828 1.6914 4.2539 4.1992 8.1914 7.5039 11.523 6.4531 6.4844 15.031 10.059 24.156 10.059s17.703-3.5703 24.164-10.07l18.355-18.512c-5.8359 23.25-12.449 46.32-19.793 68.898-2.1328 6.5391-4.1602 12.57-6.1484 18.312-38.375-8.1836-63.566-31.086-70.707-38.289zm64.785-43.832c-2.8516 2.8633-6.6367 4.4414-10.656 4.4414-4.0195 0-7.8008-1.5781-10.641-4.4297-3.1406-3.168-4.7422-7.5508-4.3867-12.059 0.27344-3.6406 1.8281-7.0586 4.3828-9.6289l52.188-52.617c2.8516-2.8711 6.6328-4.4531 10.648-4.4531s7.793 1.582 10.637 4.4492c2.8594 2.8867 4.4336 6.7344 4.4336 10.844 0 4.0938-1.5742 7.9336-4.4336 10.82zm62.746 125.96c10.172 2.0781 20.555 3.1445 30.98 3.1445 11.199 0 48.293-1.9375 84.863-24.961 4.332 9.3438 8.4922 18.723 12.477 28.039-37.66 36.922-83.715 39.898-97.34 39.898-15.711 0-31.098-2.7305-45.883-8.0586 5.2539-12.68 10.238-25.414 14.902-38.062zm30.98-182.91c4.0273 0 7.8164 1.5703 10.668 4.4219 2.8398 2.8398 4.4023 6.6289 4.4023 10.668v74.809c0 8.3242-6.7617 15.098-15.07 15.098-3.6914 0-7.2461-1.3516-10.016-3.8164-3.2148-2.8516-5.0586-6.9648-5.0586-11.281v-74.809c0.003906-8.3164 6.7656-15.09 15.074-15.09zm-15.07-133.33v-74.832c0-8.3086 6.7617-15.07 15.07-15.07 4.043 0 7.832 1.5625 10.668 4.4023 2.8398 2.8398 4.4023 6.6289 4.4023 10.668v74.832c0 8.3086-6.7617 15.07-15.07 15.07s-15.07-6.7617-15.07-15.07zm4.4883 255.66c3.3906 1.1055 6.9492 1.7148 10.582 1.7148 18.812 0 34.117-15.32 34.117-34.145v-25.008c12.777 21.453 24.863 43.457 36.062 65.746 2.2539 4.4727 4.3867 8.8281 6.4609 13.105-32.844 21.492-66.602 23.254-76.645 23.254-8.2109 0-16.391-0.75781-24.43-2.2305 2.6055-7.4336 5.1719-15.008 7.6523-22.648 2.1445-6.5547 4.1953-13.172 6.1992-19.789zm40.5-346.92c-1.5352-2.7969-3.4648-5.3984-5.7773-7.7148-6.4336-6.4375-15.008-9.9805-24.141-9.9805-13.914 0-25.895 8.3828-31.195 20.355-5.0195-10.883-10.23-21.727-15.625-32.461-3.0273-6.043-6.2383-12.266-9.5625-18.578 17.938-8.1523 36.855-12.301 56.383-12.301 7.3984 0 25.691 0.92969 47.156 8.6445-2.0469 6.7578-4.1367 13.52-6.3086 20.199-3.4609 10.656-7.125 21.281-10.93 31.836zm63.824 281.55-52.195-52.648c-5.918-5.9609-5.9141-15.68 0-21.652 2.8516-2.8711 6.6328-4.4531 10.645-4.4531 4.0156 0 7.7969 1.582 10.645 4.4492l52.188 52.613c5.9219 5.9805 5.9219 15.715 0.015625 21.676-2.7109 2.7266-6.3008 4.3008-10.113 4.4375-0.14453 0.003906-0.13672 0.003906-0.27734 0.015624l-0.26172 0.003907c-4.0156 0.003906-7.8008-1.5781-10.645-4.4414zm63.508-148.98c14.441-6.5781 28.734-13.449 42.734-20.609 3.5156-1.7891 7.168-3.6836 10.973-5.6875 12.188 27.043 13.254 51.734 13.254 59.203 0 13.688-2.0391 27.188-6.0078 40.258-5.4844-1.7031-10.93-3.4297-16.242-5.1836-10.211-3.375-20.395-6.9414-30.477-10.633 6.3164-6.2383 10.246-14.918 10.246-24.566 0.007813-15.48-10.34-28.578-24.48-32.781zm5.4414 33c0 8.3633-6.8008 15.168-15.168 15.168h-73.617c-8.3633 0-15.168-6.8008-15.168-15.383 0-8.3633 6.8008-15.168 15.168-15.168h73.617c8.3633 0.003906 15.168 6.8047 15.168 15.383zm-34.137 129.39c12.973-13.105 13.195-34.246 0.73438-47.68 16.953 6.5938 34.129 12.785 51.406 18.5 3.8711 1.2695 7.7305 2.5156 11.566 3.7305-10.113 30.355-28.09 50.172-33.766 55.883-5.8555 5.9102-12.242 11.227-19.02 15.941-2.6719-5.5508-5.4375-11.199-8.3945-17.09-3.7656-7.5-7.7344-15.094-11.777-22.691 3.3828-1.6602 6.5234-3.8516 9.25-6.5938zm43.461 43.848c8.2656-8.3086 27.461-30.258 38.461-63.703 10.539 3.1406 21.137 6.1133 31.691 8.8945-4.8555 46.387-31.68 76.719-40.172 85.242-11.078 11.172-23.852 20.203-38.039 26.992-5.1367-12.438-10.59-24.949-16.293-37.406 8.7461-5.8125 16.918-12.516 24.352-20.02zm29.277-305.27c-10.805-21.562-23.73-35.852-29.27-41.422-15.949-16.082-34.758-28.223-56.008-36.199 3.1992-11.09 6.2305-22.27 9.0625-33.422 22.406 3.6953 51.637 13.676 76.914 39.168 6.7656 6.8359 22.691 24.977 32.605 52.512-10.91 6.6133-22.051 13.094-33.305 19.363zm-42.785-28c4.9062 4.9414 16.43 17.707 26.043 37.117-5.1992 2.7656-10.375 5.4805-15.461 8.0703-10.25 5.2461-20.641 10.336-31.098 15.242 0.3125-1.8828 0.50781-3.7969 0.50781-5.7383 0-9.1562-3.5312-17.77-9.9531-24.258-6.4531-6.5-15.035-10.082-24.16-10.082-4.1797 0-8.2344 0.78516-12.035 2.2227 4.7148-12.82 9.1914-25.723 13.375-38.617 1.6094-4.9727 3.2148-10.094 4.8125-15.262 18.168 7.0156 34.277 17.5 47.969 31.305zm-64.773 43.852c2.8516-2.8711 6.6328-4.4531 10.648-4.4531s7.793 1.582 10.637 4.4414c2.8594 2.8867 4.4336 6.7422 4.4336 10.848 0 4.0781-1.582 7.9258-4.4219 10.812l-10.645 10.715c-0.003906 0.003906-0.003906 0.003906-0.007813 0.007812l-41.539 41.902c-2.8516 2.8711-6.6328 4.4531-10.645 4.4531-4.0156 0-7.7969-1.582-10.641-4.4453-5.9141-5.9727-5.9141-15.691-0.003906-21.664zm-41.207-119.73c-23.848-8.3711-44.207-9.3789-52.527-9.3789-22.715 0-44.684 4.8867-65.449 14.527-5.4102-9.8398-11.07-19.73-17.082-29.863 18.52-13.586 46.391-27.641 82.527-27.641 7.8203 0 34.16 1.168 62.328 15.094-3.0156 12.414-6.2891 24.879-9.7969 37.262zm-94.082 172.34c5.918 5.9766 5.918 15.695 0 21.668-2.832 2.8633-6.6094 4.4414-10.637 4.4414s-7.8008-1.5781-10.645-4.4453l-19.883-20.047v-0.003906l-32.301-32.562c-5.9141-5.9727-5.9141-15.695-0.007813-21.66 2.8516-2.8711 6.6328-4.4531 10.648-4.4531s7.793 1.582 10.641 4.4492zm-62.824-76.109c-9.1328 0-17.711 3.5781-24.172 10.09-13.23 13.363-13.23 35.109 0.007813 48.48l7.9727 8.0391c-17.336-4.7344-34.59-9.875-51.555-15.48-7.4375-2.4531-14.914-5.0508-22.355-7.6992 6.3984-24.699 18.465-46.137 36-63.801 5.1367-5.1992 18.473-17.398 38.852-27.262 4.1016 7.6758 8.1211 15.348 11.91 22.887 4.3242 8.6172 8.5078 17.32 12.594 26.043-2.9805-0.83594-6.082-1.2969-9.2539-1.2969zm-32.395-203.05c-2.1172 0.86328-4.25 1.7422-6.3828 2.6562-15.559 6.6641-30.801 14.504-45.301 23.301-20.145 12.203-39.133 26.438-56.699 42.395l-4.5273-36.211c37.172-30.465 78.711-53.523 123.74-68.699zm-108.73 94.98c18.027-18.152 37.938-34.234 59.266-47.934 9.5742 13.629 18.895 27.602 27.84 41.746-29.742 11.336-49.477 28.938-57.121 36.625-31.742 31.992-42.062 69.383-45.168 94.875-18.242-7.9492-36.387-16.48-54.156-25.484 17.141-37.129 40.441-70.688 69.34-99.828zm-81.496 81.18-17.152-32.047c20.625-36.312 46.508-68.859 77.148-96.992l4.7266 37.797c-26.199 27.09-47.906 57.684-64.723 91.242zm-9.9961 21.684c-6.4141 15.117-11.863 30.785-16.164 46.602-7.0273 25.699-11.203 52.211-12.562 79.047l-28.57-22.359c4.9102-48.016 18.129-93.918 39.375-136.77zm-29.211 149.46c0.46484 37.98 6.582 75.145 18.234 110.78l-34.551-10.402c-9.1953-34.02-13.906-69.328-13.906-105.06 0-6.2227 0.14453-12.449 0.42188-18.641zm26.316 133.1c0.23047 0.58594 0.44922 1.1562 0.6875 1.75 6.5586 16.152 14.309 31.934 23.016 46.891 12.621 21.719 27.477 42.09 44.227 60.812l-35.91 4.5703c-30.223-37.516-53.082-79.434-68.125-124.89zm45.699 48.242c15.434-5.1992 30.91-10.809 46.234-16.758 7.8086 17.969 18.676 34.062 32.438 47.918 10.496 10.574 47.094 43.055 102.58 46.535-8.1797 19.367-16.941 38.516-26.168 57.191-0.37109-0.16797-0.74609-0.33203-1.1133-0.49609-39.32-17.504-74.742-41.992-105.28-72.789-18.484-18.652-34.824-39.336-48.691-61.602zm156.1 156.05c15.746 6.4609 31.957 11.82 48.168 15.918 23.148 5.8984 46.949 9.457 70.98 10.695l-22.262 28.91c-47.586-4.9453-93.125-18.289-135.68-39.758l33.23-18.109c1.7188 0.73828 3.543 1.5078 5.5625 2.3438zm64.121 0.10938c7.1719-14.605 14.07-29.512 20.617-44.539 17.16 6.3203 35.062 9.5469 53.355 9.5469 14.828 0 63.445-3.1133 105.12-40.176 7.8672 19.418 15.18 39.16 21.852 58.984-0.49609 0.19922-0.98828 0.41016-1.4883 0.60547-39.949 15.633-82.168 23.559-125.48 23.559-24.969 0-49.793-2.6875-73.973-7.9805zm210.76 0.37891c1.9375-0.78906 3.8867-1.5586 5.8086-2.375 15.434-6.582 30.598-14.336 45.062-23.059 20.488-12.348 39.746-26.746 57.504-42.875l4.5273 36.203c-37.141 30.438-78.668 53.484-123.73 68.668zm108.71-94.938c-17.504 17.645-36.84 33.359-57.59 46.855-5.2344-15.398-10.875-30.789-16.84-46.004 16.605-7.7852 31.539-18.266 44.438-31.285 9.457-9.4961 39.047-42.91 45.301-93.977 19.613 4.7812 39.465 9.0156 59.285 12.637-0.77344 1.8555-1.5391 3.7031-2.3633 5.5781-17.402 39.684-41.703 75.41-72.23 106.2zm81.5-81.172 17.156 32.043c-20.621 36.293-46.504 68.84-77.148 96.977l-4.7266-37.789c26.191-27.082 47.898-57.684 64.719-91.23zm10-21.676c1.8398-4.3477 3.6016-8.6602 5.1641-12.824 5.9922-15.762 10.941-32.102 14.715-48.566 4.8086-21.031 7.7656-42.566 8.8711-64.246l28.523 22.312c-4.8867 47.992-18.102 93.898-39.359 136.79zm29.211-149.46c-0.46484-37.973-6.582-75.137-18.238-110.8l34.551 10.406c9.1914 34.113 13.906 69.426 13.906 105.08 0 6.2383-0.14453 12.457-0.42578 18.621zm-26.34-133.13c-1.1094-2.7773-2.2422-5.5391-3.3984-8.2344-6.6133-15.473-14.395-30.688-23.125-45.219-12.008-19.941-25.91-38.691-41.395-55.984l35.941-4.5586c30.207 37.504 53.062 79.418 68.102 124.88zm-47.531-51.16c-13.531 9.4922-27.328 18.684-41.234 27.465-11.266-29.004-28.203-48.242-35.582-55.699-28.254-28.496-60.738-39.953-85.938-44.328 4.5391-19.309 8.5625-38.836 12-58.281 38.758 17.477 73.707 41.75 103.89 72.191 17.645 17.773 33.367 37.48 46.859 58.652zm-319.72-381.88c0-2.9062 0.45312-5.7656 1.3633-8.5273 3.6719-11.273 14.129-18.852 26.016-18.852 7.3125 0 14.188 2.8477 19.363 8.0195 5.1719 5.1719 8.0195 12.047 8.0195 19.359v124.64c0 15.098-12.285 27.383-27.383 27.383-15.098-0.003906-27.379-12.285-27.379-27.383zm27.379 233.1c14.57 0 29.016-3.4219 42.023-9.8477 11.613 1.418 23.191 3.4414 34.582 6.0273-2.8828 16.625-6.1719 33.195-9.8438 49.523-29.297-13.527-55.867-15.156-66.762-15.156-40.297 0-71.48 15.266-92.453 30.344-10.438-16.883-21.402-33.574-32.758-49.859 26.68-10.395 54.656-17.398 83.188-20.883 13.004 6.4258 27.453 9.8516 42.023 9.8516zm-114.49-13.023 10.395-35.082c6.4492-1.7617 12.66-3.3008 18.812-4.6484 4.543 9.0391 10.441 17.27 17.629 24.504 0.88281 0.89453 1.8281 1.7227 2.7422 2.5781-16.82 3.0273-33.383 7.2852-49.578 12.648zm-242.25-117.67c-9.1172 0-17.699 3.5781-24.172 10.09-6.4258 6.4961-9.9688 15.109-9.9688 24.246 0 18.535 15 33.938 33.461 34.332 8.832 0.16406 15.75 6.8711 15.75 15.285 0 8.4297-6.7617 15.285-15.07 15.285h-12.809c-26.883 0-52.156-10.559-71.168-29.73-19.039-19.199-29.523-44.719-29.523-71.867 0-56.586 45.617-102.62 101.69-102.62h322.22c-0.046876 0.85547-0.10156 1.7109-0.10156 2.5703v102.41zm261.1 29.449v4.8828c0 8.7695 1.1758 17.352 3.4492 25.633-5.9102 1.3438-11.891 2.8555-18.074 4.5625l-33.258-21.641c15.688-5.3672 31.703-9.8633 47.883-13.438zm-70.062 21.73 31.762 20.668c-46.773 16.016-89.906 40.172-128.52 71.957l-39.047-6.2461c39.91-37.047 85.496-66.051 135.8-86.379zm-152.77 102.96 37.297 5.9648c-31.801 29.438-58.66 63.449-80.062 101.35l-38.637 8.4062c20.867-42.695 48.188-81.531 81.402-115.72zm-91.266 137.36 36.875-8.0234c-21.914 44.707-35.496 92.562-40.492 142.59l-31.867 23.305c2.2422-54.727 14.148-107.72 35.484-157.88zm-35.852 181.74 30.48-22.289c-0.23828 5.8164-0.37109 11.656-0.37109 17.496 0 37.812 5.0352 75.176 14.863 111.16l-21.43 33.449c-15.152-44.902-23.051-91.824-23.543-139.81zm117.34 299.12c-36.688-40.203-65.406-86.152-85.543-136.89l20.438-31.898c15.875 47.105 39.816 90.547 71.316 129.45zm16.566 17.234 5.9336-37.586c29.18 31.984 62.863 59.008 100.38 80.551l8.3555 39.07c-42.27-21.023-80.75-48.559-114.66-82.035zm114.82 25.887c-36.023-20.824-68.328-46.957-96.258-77.902l37.477-4.7695c26.922 26.473 57.336 48.387 90.629 65.312zm21.469 66.172-7.9805-37.297c44.332 22.055 91.734 35.723 141.24 40.742l23.246 32.301c-54.246-2.2578-106.79-14.254-156.5-35.746zm180.13-44.047c37.621-0.47656 74.434-6.6328 109.75-18.352l-10.355 34.953c-33.738 9.2539-68.73 13.996-104.12 13.996-6.125 0-12.305-0.14844-18.496-0.4375zm0.10938 80.164-22.23-30.895c5.8203 0.24219 11.633 0.37891 17.391 0.37891 37.461 0 74.508-5.0703 110.2-14.961l33.332 21.695c-44.555 15.293-91.105 23.273-138.7 23.781zm160.87-32.078-31.789-20.691c46.809-16.02 89.945-40.168 128.54-71.938l39.055 6.2617c-39.918 37.066-85.504 66.059-135.81 86.367zm152.76-102.93-37.309-5.9805c31.82-29.453 58.691-63.473 80.094-101.38l38.617-8.3789c-20.863 42.684-48.184 81.523-81.402 115.74zm91.27-137.37-36.867 7.9961c21.918-44.742 35.492-92.59 40.461-142.56l31.891-23.309c-2.2422 54.73-14.152 107.73-35.484 157.88zm35.852-181.74-30.484 22.281c0.23438-5.7969 0.37109-11.633 0.37109-17.484 0-37.723-5.0352-75.094-14.863-111.17l21.434-33.453c15.152 44.898 23.051 91.828 23.543 139.83zm-117.34-299.12c36.695 40.211 65.418 86.152 85.543 136.86l-20.438 31.898c-15.879-47.117-39.82-90.562-71.312-129.46zm-16.562-17.23-5.9336 37.574c-29.168-32-62.852-59.02-100.38-80.539l-8.3555-39.074c42.266 21.008 80.742 48.543 114.66 82.039zm-114.84-25.898c36.051 20.805 68.363 46.941 96.285 77.906l-37.523 4.7578c-26.91-26.457-57.305-48.367-90.602-65.312zm-21.441-66.145 7.9727 37.301c-29.051-14.441-59.609-25.355-91.191-32.57 2.2773-8.2969 3.4531-16.883 3.4531-25.652v-4.8867c27.297 6.0195 54.047 14.695 79.766 25.809z" fill="#c362dd"/>
</svg>
